<svg width="89" height="32" viewBox="0 0 89 32" fill="none" xmlns="http://www.w3.org/2000/svg">
<g filter="url(#filter0_d_1_116)">
<path d="M14.15 1.76007H18.02L27.26 23.0001H21.98L20.15 18.5001H11.9L10.13 23.0001H4.96997L14.15 1.76007ZM15.95 7.94007L13.37 14.5401H18.56L15.95 7.94007Z" fill="#01996D"/>
<path d="M28.8863 0.320068H33.3863V23.0001H28.8863V0.320068Z" fill="#01996D"/>
<path d="M36.6793 8.42007H41.1793V23.0001H36.6793V8.42007ZM36.3193 3.83007C36.3193 3.11007 36.5693 2.50007 37.0693 2.00007C37.5893 1.48007 38.2093 1.22007 38.9293 1.22007C39.6493 1.22007 40.2593 1.48007 40.7593 2.00007C41.2793 2.50007 41.5393 3.11007 41.5393 3.83007C41.5393 4.55007 41.2793 5.17007 40.7593 5.69007C40.2593 6.19007 39.6493 6.44007 38.9293 6.44007C38.2093 6.44007 37.5893 6.19007 37.0693 5.69007C36.5693 5.17007 36.3193 4.55007 36.3193 3.83007Z" fill="#01996D"/>
<path d="M42.8822 8.42007H47.7422L51.4322 18.3201H51.4922L54.9122 8.42007H59.4422L53.6822 23.0001H48.9122L42.8822 8.42007Z" fill="#01996D"/>
<path d="M61.1422 8.42007H65.6422V23.0001H61.1422V8.42007ZM60.7822 3.83007C60.7822 3.11007 61.0322 2.50007 61.5322 2.00007C62.0522 1.48007 62.6722 1.22007 63.3922 1.22007C64.1122 1.22007 64.7222 1.48007 65.2222 2.00007C65.7422 2.50007 66.0022 3.11007 66.0022 3.83007C66.0022 4.55007 65.7422 5.17007 65.2222 5.69007C64.7222 6.19007 64.1122 6.44007 63.3922 6.44007C62.6722 6.44007 62.0522 6.19007 61.5322 5.69007C61.0322 5.17007 60.7822 4.55007 60.7822 3.83007Z" fill="#01996D"/>
<path d="M68.3351 15.7101C68.3351 14.5501 68.5451 13.5001 68.9651 12.5601C69.3851 11.6201 69.9551 10.8201 70.6751 10.1601C71.4151 9.48007 72.2751 8.96007 73.2551 8.60007C74.2551 8.24007 75.3151 8.06007 76.4351 8.06007C77.5551 8.06007 78.6051 8.24007 79.5851 8.60007C80.5851 8.96007 81.4451 9.48007 82.1651 10.1601C82.9051 10.8201 83.4851 11.6201 83.9051 12.5601C84.3251 13.5001 84.5351 14.5501 84.5351 15.7101C84.5351 16.8701 84.3251 17.9201 83.9051 18.8601C83.4851 19.8001 82.9051 20.6101 82.1651 21.2901C81.4451 21.9501 80.5851 22.4601 79.5851 22.8201C78.6051 23.1801 77.5551 23.3601 76.4351 23.3601C75.3151 23.3601 74.2551 23.1801 73.2551 22.8201C72.2751 22.4601 71.4151 21.9501 70.6751 21.2901C69.9551 20.6101 69.3851 19.8001 68.9651 18.8601C68.5451 17.9201 68.3351 16.8701 68.3351 15.7101ZM72.8351 15.7101C72.8351 16.8101 73.1451 17.7001 73.7651 18.3801C74.4051 19.0601 75.2951 19.4001 76.4351 19.4001C77.5751 19.4001 78.4551 19.0601 79.0751 18.3801C79.7151 17.7001 80.0351 16.8101 80.0351 15.7101C80.0351 14.6101 79.7151 13.7201 79.0751 13.0401C78.4551 12.3601 77.5751 12.0201 76.4351 12.0201C75.2951 12.0201 74.4051 12.3601 73.7651 13.0401C73.1451 13.7201 72.8351 14.6101 72.8351 15.7101Z" fill="#01996D"/>
</g>
<defs>
<filter id="filter0_d_1_116" x="0.969971" y="0.320068" width="87.5652" height="31.04" filterUnits="userSpaceOnUse" color-interpolation-filters="sRGB">
<feFlood flood-opacity="0" result="BackgroundImageFix"/>
<feColorMatrix in="SourceAlpha" type="matrix" values="0 0 0 0 0 0 0 0 0 0 0 0 0 0 0 0 0 0 127 0" result="hardAlpha"/>
<feOffset dy="4"/>
<feGaussianBlur stdDeviation="2"/>
<feComposite in2="hardAlpha" operator="out"/>
<feColorMatrix type="matrix" values="0 0 0 0 0 0 0 0 0 0 0 0 0 0 0 0 0 0 0.25 0"/>
<feBlend mode="normal" in2="BackgroundImageFix" result="effect1_dropShadow_1_116"/>
<feBlend mode="normal" in="SourceGraphic" in2="effect1_dropShadow_1_116" result="shape"/>
</filter>
</defs>
</svg>
